<svg xmlns="http://www.w3.org/2000/svg" viewBox="0 0 78.87 19.56"><defs><style>.cls-1{fill:#005849;}</style></defs><g id="Livello_2" data-name="Livello 2"><g id="Livello_1-2" data-name="Livello 1"><path class="cls-1" d="M7.55,12.4A4.64,4.64,0,0,1,3.37,9.78a4.65,4.65,0,0,1,8.37,0A4.67,4.67,0,0,1,7.55,12.4M6.4,3a7.61,7.61,0,0,1,1.08.09,6.62,6.62,0,0,1,1.91.64,6.55,6.55,0,0,1,2.1,1.74,7.63,7.63,0,0,0-6.29-.7,7.71,7.71,0,0,0-1.8.88A7.62,7.62,0,0,0,.32,9.78,7,7,0,0,0,.08,10.9,7.58,7.58,0,1,0,15.17,12c0-.21,0-.42,0-.63a6.5,6.5,0,0,1-8,5.1,6.1,6.1,0,0,1-1.33-.51A6.41,6.41,0,0,1,3.53,14a7.63,7.63,0,0,0,6.75.68,7,7,0,0,0,1.39-.7,7.62,7.62,0,0,0,3.18-4.2,9.07,9.07,0,0,0,.24-1.06,8.47,8.47,0,0,0,.08-1.13A7.59,7.59,0,1,0,0,7.59c0,.23,0,.47,0,.7A6.49,6.49,0,0,1,6.4,3"/><path class="cls-1" d="M6.8,9.78a6.37,6.37,0,0,1,.76-3,6.49,6.49,0,0,1,.76,3,6.46,6.46,0,0,1-.76,3,6.34,6.34,0,0,1-.76-3"/><path class="cls-1" d="M26.64,19.45a10.8,10.8,0,0,1-4.35-.79,6.39,6.39,0,0,1-2.79-2.22,6.21,6.21,0,0,1-1.07-3.34H22.1a3.94,3.94,0,0,0,.69,1.9,3.31,3.31,0,0,0,1.53,1.13,6.49,6.49,0,0,0,2.36.38,6.09,6.09,0,0,0,1.8-.27,3,3,0,0,0,1.31-.84,2.07,2.07,0,0,0,.5-1.45,1.9,1.9,0,0,0-.12-.82,1.88,1.88,0,0,0-.45-.69,4.09,4.09,0,0,0-1.63-.87c-.71-.22-1.57-.44-2.53-.66a24.21,24.21,0,0,1-2.5-.66,8.23,8.23,0,0,1-2.06-1,4.17,4.17,0,0,1-1.39-1.53,4.78,4.78,0,0,1-.51-2.35,4.86,4.86,0,0,1,.91-3A5.56,5.56,0,0,1,22.51.6a10.24,10.24,0,0,1,3.6-.6A10.18,10.18,0,0,1,29,.38a6.52,6.52,0,0,1,2.21,1.09A5.42,5.42,0,0,1,32.7,3.22a6.36,6.36,0,0,1,.67,2.34H29.79a2.89,2.89,0,0,0-.37-1.14,2.82,2.82,0,0,0-.79-.89A4.27,4.27,0,0,0,26,2.8a4.37,4.37,0,0,0-2.44.61,1.81,1.81,0,0,0-.68.72,1.78,1.78,0,0,0-.24,1,1.59,1.59,0,0,0,.13.72,1.7,1.7,0,0,0,.43.6,4.3,4.3,0,0,0,1.61.78c.7.2,1.53.41,2.5.63s1.71.41,2.51.67A8.42,8.42,0,0,1,32,9.5a4.62,4.62,0,0,1,1.48,1.63A5.31,5.31,0,0,1,34,13.64a5.17,5.17,0,0,1-1,3.15,6,6,0,0,1-2.62,2,9.75,9.75,0,0,1-3.78.69Z"/><path class="cls-1" d="M34.67,19.08V5.55H38v2H38A4.54,4.54,0,0,1,40.5,5.47a5.16,5.16,0,0,1,1.74-.28,5,5,0,0,1,2.51.59,4,4,0,0,1,1.59,1.65A5.45,5.45,0,0,1,46.9,10v9.11H43.54V10.56a2.62,2.62,0,0,0-.66-1.87A2.48,2.48,0,0,0,41,8a2.85,2.85,0,0,0-1.53.42,2.76,2.76,0,0,0-1,1.13,3.67,3.67,0,0,0-.38,1.69v7.85Z"/><path class="cls-1" d="M51,11.1h6.49A4.49,4.49,0,0,0,57,9.26a2.84,2.84,0,0,0-1.07-1.18,3,3,0,0,0-1.61-.42,3,3,0,0,0-2.82,1.63A5.73,5.73,0,0,0,51,11.1Zm3.55,8.33a7,7,0,0,1-3.71-.93,6.29,6.29,0,0,1-2.37-2.56,7.63,7.63,0,0,1-.84-3.6,7.6,7.6,0,0,1,.85-3.62A6.58,6.58,0,0,1,50.8,6.18a6.44,6.44,0,0,1,3.5-.94,6.57,6.57,0,0,1,2.63.49,5.58,5.58,0,0,1,2,1.35,6.55,6.55,0,0,1,1.5,2.62,11.5,11.5,0,0,1,.47,3.45h-10a5.44,5.44,0,0,0,.56,2,3.29,3.29,0,0,0,1.2,1.31,3.44,3.44,0,0,0,1.85.48,3.49,3.49,0,0,0,1.82-.45,2.62,2.62,0,0,0,1.05-1.23h3.26a5.26,5.26,0,0,1-1.15,2.16,5.65,5.65,0,0,1-2.09,1.49,7.24,7.24,0,0,1-2.9.56Z"/><path class="cls-1" d="M61.71,5.55V19.09h3.38V5.55Zm0-2.1h3.44V.26H61.67Z"/><path class="cls-1" d="M72.75,19.44a6.92,6.92,0,0,1-3.64-.94,6.47,6.47,0,0,1-2.39-2.56,8.09,8.09,0,0,1,0-7.22,6.46,6.46,0,0,1,2.37-2.55,6.81,6.81,0,0,1,3.6-.94,6.93,6.93,0,0,1,3,.63,5.25,5.25,0,0,1,2.08,1.71,5.79,5.79,0,0,1,1,2.56H75.52A3.44,3.44,0,0,0,75,8.88a2.45,2.45,0,0,0-.94-.81,3,3,0,0,0-1.35-.28,3,3,0,0,0-1.9.58A3.45,3.45,0,0,0,69.67,10a6.81,6.81,0,0,0-.39,2.37,6.59,6.59,0,0,0,.39,2.33,3.43,3.43,0,0,0,1.15,1.6,3,3,0,0,0,1.9.58,2.82,2.82,0,0,0,2-.72,3,3,0,0,0,.87-2h3.26A5.52,5.52,0,0,1,78,16.88a5.39,5.39,0,0,1-2.11,1.88,7,7,0,0,1-3.16.68Z"/></g></g></svg>